<svg xmlns="http://www.w3.org/2000/svg" viewBox="0 0 57.27 60.87"><defs><style>.cls-1{fill:#572d1a;}.cls-2{fill:#ea1620;}.cls-3{fill:#f45221;}.cls-4{fill:#fbe833;}.cls-5{fill:#006837;}.cls-6{fill:#7db23e;}.cls-7{fill:#f7931e;}</style></defs><g id="Camada_2" data-name="Camada 2"><g id="Ñëîé_1" data-name="Ñëîé 1"><path class="cls-1" d="M43.08,38.67l-5.73-4.92L43.77,26h3.57V23.76h-4.6L28.64,40.88V27a11.22,11.22,0,0,1,1.81-6.1L34.28,15l-1.83-1.19-3.81,5.85V5.93H24.26V20l-3.78-6.11L18.62,15l4,6.4a11.16,11.16,0,0,1,1.68,5.9V40.47L12,21.53l-1.84,1.19,6.44,9.93L6.91,38.72l1.16,1.85L16.91,35a1.06,1.06,0,0,1,1.44.32l3.44,5.32c1.18,1.81,1.32,5,1.32,7.12v2.44A13.42,13.42,0,0,1,18,60.75l-.16.12H34.92l-.13-.1a13.42,13.42,0,0,1-5.11-10.54V45.44a7.75,7.75,0,0,1,1.51-4.22L34,37.86a2.94,2.94,0,0,1,4.18-.38L42.27,41H49.4V38.67Z"/><path class="cls-2" d="M32.38,1.34c-1.21-1.9-4.1-1.9-5.83.79A6.83,6.83,0,0,0,25,.69c-2.4-1.65-6.92.93-4,5.07,1,1.39,5.55,5.16,5.55,5.16S30.82,7.26,32,5.43,33,2.38,32.38,1.34Z"/><path class="cls-2" d="M42.23,11.17c-1.21-1.9-4.1-1.9-5.83.79a6.83,6.83,0,0,0-1.54-1.44c-2.4-1.65-6.93.93-4,5.07,1,1.39,5.55,5.16,5.55,5.16s4.27-3.65,5.41-5.49S42.89,12.22,42.23,11.17Z"/><path class="cls-3" d="M22.34,11.17c-1.21-1.9-4.1-1.9-5.83.79A6.83,6.83,0,0,0,15,10.52c-2.4-1.65-6.93.93-4,5.07,1,1.39,5.55,5.16,5.55,5.16s4.27-3.65,5.41-5.49S23,12.22,22.34,11.17Z"/><path class="cls-4" d="M55.15,20.33c-1.21-1.91-4.11-1.91-5.83.78a7,7,0,0,0-1.55-1.44c-2.4-1.65-6.92.93-4,5.07,1,1.39,5.56,5.16,5.56,5.16s4.27-3.65,5.4-5.48S55.81,21.37,55.15,20.33Z"/><path class="cls-5" d="M56.8,36c-1.21-1.91-4.1-1.9-5.83.78a6.93,6.93,0,0,0-1.54-1.43c-2.4-1.65-6.93.93-4,5.06,1,1.4,5.55,5.16,5.55,5.16s4.27-3.65,5.41-5.48S57.46,37,56.8,36Z"/><path class="cls-6" d="M38.78,25.79c-1.21-1.91-4.1-1.91-5.83.78a6.83,6.83,0,0,0-1.54-1.44c-2.4-1.65-6.93.93-4,5.07,1,1.39,5.55,5.16,5.55,5.16s4.27-3.65,5.41-5.49S39.44,26.83,38.78,25.79Z"/><path class="cls-7" d="M14.79,20.33c-1.21-1.91-4.11-1.91-5.83.78a7,7,0,0,0-1.55-1.44C5,18,.49,20.6,3.4,24.74,4.39,26.13,9,29.9,9,29.9s4.27-3.65,5.4-5.48S15.45,21.37,14.79,20.33Z"/><path class="cls-5" d="M12.33,36c-1.21-1.91-4.1-1.9-5.83.78A6.93,6.93,0,0,0,5,35.34c-2.4-1.65-6.93.93-4,5.06,1,1.4,5.55,5.16,5.55,5.16s4.27-3.65,5.41-5.48S13,37,12.33,36Z"/></g></g></svg>